# xmcd
#
# Track frame offsets: 
#        150
#        14025
#        27225
#        40891
#        56791
#        70924
#        91399
#        101927
#        115084
#
# Disc length: 1729 seconds
#
# Revision: 0
# Processed by: cddbd v1.5.2PL0 Copyright (c) Steve Scherf et al.
# Submitted via: ExactAudioCopyFreeDBPlugin 1.0
#
DISCID=7c06bf09
DTITLE=Alan Burgess Garage Band - SOULSWINGROOVE
DYEAR=2008
DGENRE=Blues
TTITLE0=I Whish
TTITLE1=I got you
TTITLE2=Honky Town Women
TTITLE3=Long Train Running
TTITLE4=Unchain My Heart
TTITLE5=Mack The Knife
TTITLE6=Mean Woman Blues
TTITLE7=Hit The Road Jack
TTITLE8=Fly me To The Moon
EXTD=
EXTT0=
EXTT1=
EXTT2=
EXTT3=
EXTT4=
EXTT5=
EXTT6=
EXTT7=
EXTT8=
PLAYORDER=
